HIERARCHY
ROOT Hips
{
	OFFSET 0.000000 97.167313 0.000000
	CHANNELS 6 Xposition Yposition Zposition Xrotation Yrotation Zrotation
	JOINT Spine
	{
		OFFSET 0.000000 13.784798 0.064400
		CHANNELS 3 Xrotation Yrotation Zrotation
		JOINT Spine1
		{
			OFFSET 0.000000 12.037903 0.404700
			CHANNELS 3 Xrotation Yrotation Zrotation
			JOINT Spine2
			{
				OFFSET 0.000000 17.795601 0.420200
				CHANNELS 3 Xrotation Yrotation Zrotation
				JOINT Neck
				{
					OFFSET 0.000000 39.131302 11.954600
					CHANNELS 3 Xrotation Yrotation Zrotation
					JOINT Head
					{
						OFFSET 0.000000 14.456192 15.627699
						CHANNELS 3 Xrotation Yrotation Zrotation
						JOINT HeadTop_End
						{
							OFFSET 0.000000 15.703506 7.603401
							CHANNELS 3 Xrotation Yrotation Zrotation
							End Site
							{
								OFFSET 0.000000 17.447403 0.000000
							}
						}
					}
				}
				JOINT LeftShoulder
				{
					OFFSET 17.399500 24.608795 1.168800
					CHANNELS 3 Xrotation Yrotation Zrotation
					JOINT LeftArm
					{
						OFFSET 18.980635 5.765305 1.818600
						CHANNELS 3 Xrotation Yrotation Zrotation
						JOINT LeftForeArm
						{
							OFFSET 49.290169 0.000000 0.000000
							CHANNELS 3 Xrotation Yrotation Zrotation
							JOINT LeftHand
							{
								OFFSET 31.562012 0.000000 0.000000
								CHANNELS 3 Xrotation Yrotation Zrotation
								JOINT LeftHandThumb1
								{
									OFFSET 6.133995 -4.388519 7.076070
									CHANNELS 3 Xrotation Yrotation Zrotation
									JOINT LeftHandThumb2
									{
										OFFSET 6.037666 -3.485840 3.485847
										CHANNELS 3 Xrotation Yrotation Zrotation
										JOINT LeftHandThumb3
										{
											OFFSET 6.496506 -3.750763 3.750761
											CHANNELS 3 Xrotation Yrotation Zrotation
											JOINT LeftHandThumb4
											{
												OFFSET 5.616882 -3.242905 3.242910
												CHANNELS 3 Xrotation Yrotation Zrotation
												End Site
												{
													OFFSET -1.254608 7.132141 0.375429
												}
											}
										}
									}
								}
								JOINT LeftHandPinky1
								{
									OFFSET 18.920792 -0.453171 -11.426712
									CHANNELS 3 Xrotation Yrotation Zrotation
									JOINT LeftHandPinky2
									{
										OFFSET 4.919586 0.000000 0.000000
										CHANNELS 3 Xrotation Yrotation Zrotation
										JOINT LeftHandPinky3
										{
											OFFSET 5.233047 0.000000 0.000000
											CHANNELS 3 Xrotation Yrotation Zrotation
											JOINT LeftHandPinky4
											{
												OFFSET 5.571716 0.000000 0.000000
												CHANNELS 3 Xrotation Yrotation Zrotation
												End Site
												{
													OFFSET -3.459808 4.342407 -0.466164
												}
											}
										}
									}
								}
								JOINT LeftHandRing1
								{
									OFFSET 22.726120 -0.094986 -6.500475
									CHANNELS 3 Xrotation Yrotation Zrotation
									JOINT LeftHandRing2
									{
										OFFSET 6.408615 0.000000 0.000000
										CHANNELS 3 Xrotation Yrotation Zrotation
										JOINT LeftHandRing3
										{
											OFFSET 6.150223 0.000000 0.000000
											CHANNELS 3 Xrotation Yrotation Zrotation
											JOINT LeftHandRing4
											{
												OFFSET 6.145386 0.000000 0.000000
												CHANNELS 3 Xrotation Yrotation Zrotation
												End Site
												{
													OFFSET -3.671402 4.923981 -0.202372
												}
											}
										}
									}
								}
								JOINT LeftHandMiddle1
								{
									OFFSET 23.373947 0.000000 0.000001
									CHANNELS 3 Xrotation Yrotation Zrotation
									JOINT LeftHandMiddle2
									{
										OFFSET 6.996567 0.000000 0.000000
										CHANNELS 3 Xrotation Yrotation Zrotation
										JOINT LeftHandMiddle3
										{
											OFFSET 7.015945 0.000000 0.000000
											CHANNELS 3 Xrotation Yrotation Zrotation
											JOINT LeftHandMiddle4
											{
												OFFSET 7.721573 0.000000 0.000000
												CHANNELS 3 Xrotation Yrotation Zrotation
												End Site
												{
													OFFSET -4.651108 6.158463 0.251582
												}
											}
										}
									}
								}
								JOINT LeftHandIndex1
								{
									OFFSET 21.310577 -0.490082 6.209344
									CHANNELS 3 Xrotation Yrotation Zrotation
									JOINT LeftHandIndex2
									{
										OFFSET 7.536453 0.000000 0.000000
										CHANNELS 3 Xrotation Yrotation Zrotation
										JOINT LeftHandIndex3
										{
											OFFSET 7.512344 0.000000 0.000000
											CHANNELS 3 Xrotation Yrotation Zrotation
											JOINT LeftHandIndex4
											{
												OFFSET 10.212402 0.000000 0.000001
												CHANNELS 3 Xrotation Yrotation Zrotation
												End Site
												{
													OFFSET -5.180801 8.690506 1.388433
												}
											}
										}
									}
								}
							}
						}
					}
				}
				JOINT RightShoulder
				{
					OFFSET -17.399500 24.608795 1.168800
					CHANNELS 3 Xrotation Yrotation Zrotation
					JOINT RightArm
					{
						OFFSET -18.980635 5.765305 1.818600
						CHANNELS 3 Xrotation Yrotation Zrotation
						JOINT RightForeArm
						{
							OFFSET -49.290169 0.000000 0.000000
							CHANNELS 3 Xrotation Yrotation Zrotation
							JOINT RightHand
							{
								OFFSET -31.562012 0.000000 0.000000
								CHANNELS 3 Xrotation Yrotation Zrotation
								JOINT RightHandThumb1
								{
									OFFSET -6.133995 -4.388519 7.076070
									CHANNELS 3 Xrotation Yrotation Zrotation
									JOINT RightHandThumb2
									{
										OFFSET -6.037666 -3.485840 3.485847
										CHANNELS 3 Xrotation Yrotation Zrotation
										JOINT RightHandThumb3
										{
											OFFSET -6.496506 -3.750763 3.750761
											CHANNELS 3 Xrotation Yrotation Zrotation
											JOINT RightHandThumb4
											{
												OFFSET -5.616882 -3.242905 3.242910
												CHANNELS 3 Xrotation Yrotation Zrotation
												End Site
												{
													OFFSET 1.254608 7.132141 0.375429
												}
											}
										}
									}
								}
								JOINT RightHandIndex1
								{
									OFFSET -21.310577 -0.490082 6.209344
									CHANNELS 3 Xrotation Yrotation Zrotation
									JOINT RightHandIndex2
									{
										OFFSET -7.536453 0.000000 0.000000
										CHANNELS 3 Xrotation Yrotation Zrotation
										JOINT RightHandIndex3
										{
											OFFSET -7.512344 0.000000 0.000000
											CHANNELS 3 Xrotation Yrotation Zrotation
											JOINT RightHandIndex4
											{
												OFFSET -10.212402 0.000000 0.000001
												CHANNELS 3 Xrotation Yrotation Zrotation
												End Site
												{
													OFFSET 5.180801 8.690506 1.388433
												}
											}
										}
									}
								}
								JOINT RightHandMiddle1
								{
									OFFSET -23.373947 0.000000 0.000001
									CHANNELS 3 Xrotation Yrotation Zrotation
									JOINT RightHandMiddle2
									{
										OFFSET -6.996567 0.000000 0.000000
										CHANNELS 3 Xrotation Yrotation Zrotation
										JOINT RightHandMiddle3
										{
											OFFSET -7.015945 0.000000 0.000000
											CHANNELS 3 Xrotation Yrotation Zrotation
											JOINT RightHandMiddle4
											{
												OFFSET -7.721573 0.000000 0.000000
												CHANNELS 3 Xrotation Yrotation Zrotation
												End Site
												{
													OFFSET 4.651108 6.158463 0.251582
												}
											}
										}
									}
								}
								JOINT RightHandRing1
								{
									OFFSET -22.726120 -0.094986 -6.500475
									CHANNELS 3 Xrotation Yrotation Zrotation
									JOINT RightHandRing2
									{
										OFFSET -6.408615 0.000000 0.000000
										CHANNELS 3 Xrotation Yrotation Zrotation
										JOINT RightHandRing3
										{
											OFFSET -6.150223 0.000000 0.000000
											CHANNELS 3 Xrotation Yrotation Zrotation
											JOINT RightHandRing4
											{
												OFFSET -6.145386 0.000000 0.000000
												CHANNELS 3 Xrotation Yrotation Zrotation
												End Site
												{
													OFFSET 3.671402 4.923981 -0.202372
												}
											}
										}
									}
								}
								JOINT RightHandPinky1
								{
									OFFSET -18.920792 -0.453171 -11.426712
									CHANNELS 3 Xrotation Yrotation Zrotation
									JOINT RightHandPinky2
									{
										OFFSET -4.919586 0.000000 0.000000
										CHANNELS 3 Xrotation Yrotation Zrotation
										JOINT RightHandPinky3
										{
											OFFSET -5.233047 0.000000 0.000000
											CHANNELS 3 Xrotation Yrotation Zrotation
											JOINT RightHandPinky4
											{
												OFFSET -5.571716 0.000000 0.000000
												CHANNELS 3 Xrotation Yrotation Zrotation
												End Site
												{
													OFFSET 3.459808 4.342407 -0.466164
												}
											}
										}
									}
								}
							}
						}
					}
				}
			}
		}
	}
	JOINT LeftUpLeg
	{
		OFFSET 19.899099 -7.885101 -3.429500
		CHANNELS 3 Xrotation Yrotation Zrotation
		JOINT LeftLeg
		{
			OFFSET 1.745560 -36.997807 10.304700
			CHANNELS 3 Xrotation Yrotation Zrotation
			JOINT LeftFoot
			{
				OFFSET -1.745558 -29.803308 -13.615400
				CHANNELS 3 Xrotation Yrotation Zrotation
				JOINT LeftToeBase
				{
					OFFSET 1.181900 -18.539904 15.226099
					CHANNELS 3 Xrotation Yrotation Zrotation
					JOINT LeftToe_End
					{
						OFFSET -0.863701 1.402801 16.534700
						CHANNELS 3 Xrotation Yrotation Zrotation
						End Site
						{
							OFFSET 0.000000 16.616566 0.000000
						}
					}
				}
			}
		}
	}
	JOINT RightUpLeg
	{
		OFFSET -19.899099 -7.885101 -3.429500
		CHANNELS 3 Xrotation Yrotation Zrotation
		JOINT RightLeg
		{
			OFFSET -1.745560 -36.997807 10.304700
			CHANNELS 3 Xrotation Yrotation Zrotation
			JOINT RightFoot
			{
				OFFSET 1.745558 -29.803308 -13.615400
				CHANNELS 3 Xrotation Yrotation Zrotation
				JOINT RightToeBase
				{
					OFFSET -1.181900 -18.539904 15.226099
					CHANNELS 3 Xrotation Yrotation Zrotation
					JOINT RightToe_End
					{
						OFFSET 0.863701 1.402801 16.534700
						CHANNELS 3 Xrotation Yrotation Zrotation
						End Site
						{
							OFFSET 0.000000 16.616566 0.000000
						}
					}
				}
			}
		}
	}
}
MOTION
Frames: 6
Frame Time: 0.033333
346.075500 95.471794 190.357193 -4.400308 51.014919 5.369333 5.214233 1.392497 -1.531091 -5.091982 2.746964 -1.983588 -4.989431 2.580691 -2.195286 7.822138 25.353580 4.610974 2.642294 13.653943 -3.161265 0.000000 0.000000 -0.000000 4.119311 -10.337895 2.722863 1.613679 -5.191235 -74.923091 3.818204 -13.392494 -4.641364 -1.745452 10.647777 -3.845268 9.866055 -1.173227 17.120839 -1.899176 24.912201 -5.957338 -5.543617 2.769542 -2.045288 0.000007 0.000004 0.000001 -3.647836 14.389066 -15.646672 8.463980 2.576390 -29.380390 5.101625 2.537307 -12.571045 0.000000 0.000001 -0.000007 -3.682817 10.841279 -5.238128 3.023514 3.456312 -27.620464 1.678613 2.525977 -13.688668 -0.000002 -0.000002 0.000003 -2.068310 3.329674 -7.731520 -0.024280 4.070875 -22.082084 -0.525195 0.874322 -9.827014 -0.000001 -0.000002 0.000008 1.103618 -1.170280 -3.339415 -1.795852 1.890453 -15.025808 -1.619321 3.839032 -11.286921 -0.000001 0.000001 0.000001 3.585513 5.225676 4.141789 -0.808757 -1.705723 75.956546 -6.185244 25.287899 2.654008 1.527105 -2.778921 -5.556664 15.592400 -0.390983 -16.709983 -3.572978 -28.946314 7.171104 -7.784262 -1.512856 3.157927 0.000004 -0.000001 0.000002 2.110280 -1.195525 5.844655 -2.171457 -2.450541 16.041748 -1.891692 -4.844700 11.824784 0.000001 -0.000001 -0.000001 -2.195223 -4.545481 10.998228 0.261932 -5.087090 24.372191 -0.652978 -1.122645 9.093424 0.000004 -0.000001 -0.000004 -4.993730 -10.104646 8.219490 4.013899 -4.050817 30.711153 2.120525 -3.144779 13.046654 0.000002 -0.000003 -0.000002 -5.348435 -14.207172 20.924828 10.724731 -2.563632 32.236294 6.424822 -3.078228 12.692302 0.000004 0.000003 -0.000001 -6.384053 11.064037 -1.516509 21.896538 -8.644275 -0.201448 23.029489 1.637838 2.983065 -37.773869 -0.222681 0.026142 -0.000000 0.000002 -0.000000 -20.625990 -4.546457 -7.494844 23.701718 -4.482263 -0.036855 30.280233 -0.763110 3.665085 -32.129230 1.571337 0.537127 0.000000 -0.000001 -0.000000 
346.106750 95.533554 190.327835 -4.749868 49.617230 5.647580 5.197934 1.304145 -1.879475 -4.974794 2.733916 -1.928553 -4.865693 2.564759 -2.142453 8.363027 25.975430 4.384374 2.459430 14.246913 -3.135761 0.000000 -0.000000 0.000000 4.137728 -10.342482 2.920063 1.357807 -5.592026 -75.077986 2.099449 -13.051797 -5.112368 -1.771683 10.111616 -3.587121 9.833650 -1.394194 17.069047 -2.030736 24.717850 -5.959276 -5.643456 2.567068 -2.093450 0.000000 0.000001 0.000001 -3.602582 14.583320 -15.448901 8.469252 2.576233 -29.165604 5.104783 2.538313 -12.350427 -0.000001 0.000000 -0.000002 -3.685752 10.839298 -5.029392 3.025634 3.457828 -27.412028 1.679659 2.527283 -13.472214 -0.000002 -0.000001 0.000005 -2.083828 3.185901 -7.521388 -0.023677 4.073150 -21.870985 -0.525802 0.874751 -9.609405 -0.000001 -0.000000 0.000008 1.100018 -1.407659 -3.120745 -1.795925 1.891597 -14.804748 -1.619807 3.841299 -11.064887 0.000002 0.000005 0.000006 3.607277 5.806198 3.838568 -1.036401 -0.833409 76.374069 -8.534412 27.767798 4.000992 2.028843 -2.743950 -6.182064 15.603950 -0.085635 -16.667285 -3.756804 -28.673602 7.155265 -7.929734 -1.222309 3.229125 0.000004 -0.000001 0.000001 2.093428 -0.887604 5.532782 -2.171089 -2.450389 15.729197 -1.891735 -4.844563 11.512221 -0.000002 0.000000 0.000001 -2.216173 -4.400675 10.680764 0.261816 -5.086944 24.056302 -0.653067 -1.122591 8.777477 0.000001 0.000000 -0.000004 -4.993839 -10.104461 7.908730 4.013652 -4.050651 30.400393 2.119918 -3.144776 12.735906 -0.000002 -0.000001 -0.000002 -5.224828 -14.574186 20.635893 10.724566 -2.563552 31.916309 6.424768 -3.078172 12.372309 0.000002 -0.000001 -0.000001 -7.830254 12.033065 -2.718751 22.184576 -14.351394 0.227748 26.999470 1.174126 5.822204 -39.696643 -0.251330 0.022719 0.000000 0.000003 0.000000 -20.701296 -4.869116 -7.237106 23.326691 -3.271878 -0.096418 30.955346 -0.691200 3.197836 -32.263829 1.594122 0.398904 -0.000000 -0.000003 -0.000000 
346.067474 95.388374 190.289551 -4.866822 47.638592 5.850332 5.426888 1.259939 -2.378162 -4.988445 2.788396 -1.779759 -4.873451 2.611291 -1.993085 8.715489 26.720335 3.988166 2.400946 14.904564 -3.044782 -0.000000 0.000000 -0.000000 4.143057 -10.255408 3.019673 1.057150 -6.172878 -75.129403 1.100527 -13.026762 -5.404515 -1.709948 9.711844 -4.177546 9.811948 -1.623280 17.008182 -2.167386 24.515591 -5.961827 -5.747512 2.356510 -2.143997 -0.000001 0.000002 -0.000003 -3.556898 14.785833 -15.243005 8.474690 2.576153 -28.942186 5.108018 2.539339 -12.120853 0.000001 -0.000003 -0.000006 -3.688738 10.837202 -4.812214 3.027728 3.459348 -27.195131 1.680692 2.528606 -13.246960 0.000000 -0.000001 0.000005 -2.098895 3.036191 -7.302951 -0.023060 4.075471 -21.651298 -0.526326 0.875208 -9.382968 0.000000 -0.000002 0.000006 1.098192 -1.654745 -2.893332 -1.796036 1.892850 -14.574772 -1.620335 3.843610 -10.833836 0.000000 -0.000000 0.000003 3.634518 5.843429 3.580342 -1.154261 0.738463 76.737722 -9.510067 30.633880 4.879391 1.039885 -2.464418 -6.315084 15.615597 0.229499 -16.623265 -3.945907 -28.392062 7.140037 -8.080259 -0.922614 3.303395 0.000003 0.000000 -0.000001 2.079527 -0.569550 5.211050 -2.170710 -2.450236 15.406672 -1.891769 -4.844507 11.189662 -0.000002 -0.000005 -0.000002 -2.236142 -4.250921 10.353392 0.261757 -5.086897 23.730179 -0.653164 -1.122554 8.451431 -0.000002 -0.000001 -0.000004 -4.993842 -10.104258 7.588035 4.013442 -4.050467 30.079706 2.119722 -3.144710 12.415200 -0.000004 -0.000000 -0.000003 -5.101238 -14.954409 20.337679 10.724377 -2.563487 31.586032 6.424726 -3.078088 12.042014 -0.000000 -0.000001 -0.000001 -9.585393 12.184139 -5.210792 23.347468 -22.333831 0.969503 30.515916 0.523847 9.774698 -40.338681 -0.263125 0.024025 -0.000000 0.000001 0.000000 -21.523842 -5.161025 -6.709979 23.489137 -0.543156 -0.200949 31.746801 -1.440008 2.853020 -32.485158 1.632306 0.228494 0.000000 0.000003 0.000000 
345.925079 95.004158 190.195679 -4.720460 45.013132 5.944052 6.042248 1.294786 -3.022132 -5.150236 2.961936 -1.466650 -5.031458 2.770575 -1.677834 8.713521 27.628873 3.134363 2.379703 15.559676 -2.714637 -0.000000 -0.000000 0.000000 4.114370 -10.231700 2.740125 0.611778 -6.990051 -75.089119 0.901845 -13.092720 -5.622443 -1.643314 9.197174 -4.826447 9.816956 -1.818749 16.942467 -2.308518 24.306102 -5.965034 -5.855516 2.138638 -2.196743 0.000005 -0.000000 -0.000001 -3.511174 14.995880 -15.029637 8.480298 2.576096 -28.710827 5.111359 2.540415 -11.883204 -0.000000 -0.000001 -0.000006 -3.691801 10.835029 -4.587368 3.029899 3.460922 -26.970482 1.681716 2.530043 -13.013765 -0.000004 0.000001 -0.000002 -2.113237 2.881019 -7.076882 -0.022444 4.077856 -21.423862 -0.526834 0.875631 -9.148558 0.000001 -0.000000 0.000004 1.098363 -1.910678 -2.657921 -1.796099 1.894108 -14.336675 -1.620870 3.845994 -10.594585 0.000001 0.000003 0.000002 3.654118 5.390251 3.298952 -1.401644 2.597826 77.125007 -10.351132 33.491751 5.756458 0.135873 -2.237452 -6.262950 15.627323 0.552959 -16.578148 -4.139378 -28.103047 7.125588 -8.235135 -0.615258 3.380380 0.000001 0.000000 0.000002 2.068861 -0.242985 4.880933 -2.170258 -2.450077 15.075578 -1.891833 -4.844451 10.858586 -0.000000 0.000002 0.000004 -2.254831 -4.096972 10.017553 0.261624 -5.086813 23.395589 -0.653245 -1.122519 8.116764 0.000005 0.000001 -0.000004 -4.993785 -10.104057 7.258894 4.013324 -4.050284 29.750518 2.119933 -3.144649 12.086056 -0.000003 0.000004 -0.000005 -4.978604 -15.346096 20.031458 10.724225 -2.563453 31.247057 6.424658 -3.077972 11.703082 -0.000000 0.000002 0.000001 -11.155564 10.201414 -8.847672 25.571976 -30.828851 1.808163 32.572380 0.487642 13.356864 -39.335715 -0.248409 0.027005 0.000000 0.000000 -0.000000 -22.868334 -4.456335 -6.162647 24.347154 0.946573 -0.322799 31.995126 -1.020344 2.151290 -32.426811 1.694917 -0.147849 0.000000 0.000001 0.000000 
345.737366 94.351959 190.013489 -4.793140 41.591682 6.069890 7.373921 1.426107 -3.521437 -5.479170 3.193433 -1.067545 -5.360394 2.986231 -1.272777 8.179238 28.729890 2.165982 2.676844 16.355054 -2.440798 0.000000 0.000000 -0.000000 4.044014 -9.655080 2.376108 -0.054972 -7.874309 -75.207903 1.176865 -12.914998 -5.811660 -1.634391 8.385949 -4.898585 9.844738 -1.985261 16.871940 -2.453690 24.090200 -5.969020 -5.967091 1.914255 -2.251599 0.000002 -0.000003 -0.000003 -3.465730 15.212792 -14.809561 8.486036 2.576075 -28.472385 5.114753 2.541537 -11.638231 0.000000 0.000004 -0.000007 -3.694929 10.832772 -4.355615 3.032142 3.462634 -26.739018 1.682761 2.531548 -12.773419 0.000001 -0.000000 0.000005 -2.126761 2.720917 -6.844030 -0.021857 4.080320 -21.189441 -0.527239 0.876093 -8.906924 -0.000000 -0.000002 0.000009 1.100711 -2.174550 -2.415397 -1.796195 1.895341 -14.091280 -1.621434 3.848440 -10.348019 -0.000002 -0.000004 0.000001 3.673263 5.210135 3.042097 -2.024127 3.773216 77.655091 -12.078778 35.773638 7.132098 0.644672 -2.189493 -6.119653 15.639040 0.883205 -16.532166 -4.336335 -27.807917 7.111937 -8.393702 -0.301552 3.459944 0.000003 0.000002 -0.000000 2.061742 0.090648 4.543951 -2.169807 -2.449920 14.737552 -1.891874 -4.844358 10.520499 -0.000002 0.000000 0.000002 -2.272011 -3.939548 9.674782 0.261535 -5.086733 23.053847 -0.653338 -1.122473 7.775042 -0.000001 0.000002 -0.000008 -4.993762 -10.103866 6.922755 4.013207 -4.050084 29.414442 2.120349 -3.144586 11.749952 -0.000003 0.000002 0.000000 -4.857801 -15.747558 19.718544 10.724048 -2.563387 30.900923 6.424622 -3.077888 11.356943 -0.000003 0.000000 0.000000 -12.187359 5.030593 -11.993590 28.201779 -34.935567 2.204574 31.434081 1.138819 14.885526 -37.149460 -0.218899 0.031928 0.000000 -0.000000 0.000000 -24.567250 -4.026242 -5.358386 25.780672 2.151539 -0.477003 31.889450 0.329101 0.431726 -32.119794 1.725300 -0.825610 0.000000 -0.000000 -0.000000 
345.555969 93.401756 189.745789 -5.205204 37.103336 6.268967 8.787630 1.708558 -3.558600 -5.647422 3.467411 -0.985582 -5.540066 3.258602 -1.193204 7.446908 29.887876 2.338825 3.235538 17.629569 -3.061219 0.000000 0.000000 0.000000 4.020627 -8.698001 2.748090 -0.875767 -8.299949 -75.617721 1.678128 -12.482962 -5.803276 -1.652434 7.487770 -4.701953 9.880026 -2.154492 16.794901 -2.602395 23.868537 -5.973651 -6.081930 1.684096 -2.308427 0.000004 -0.000001 -0.000003 -3.420864 15.435881 -14.583446 8.491883 2.576097 -28.227616 5.118232 2.542749 -11.386784 -0.000001 0.000002 0.000001 -3.698129 10.830485 -4.117747 3.034509 3.464400 -26.501433 1.683782 2.533019 -12.526687 -0.000000 -0.000001 0.000005 -2.139285 2.556427 -6.605192 -0.021261 4.082854 -20.948861 -0.527602 0.876587 -8.658895 -0.000003 -0.000001 0.000008 1.105465 -2.445475 -2.166547 -1.796424 1.896646 -13.839383 -1.622038 3.850918 -10.094931 0.000002 -0.000000 0.000001 3.661998 6.152099 3.020289 -3.029422 3.539726 78.159303 -14.415512 37.045822 8.803541 2.375622 -2.059336 -5.781493 15.650695 1.218918 -16.485474 -4.535878 -27.507940 7.099320 -8.555296 0.016970 3.541626 -0.000002 0.000001 0.000003 2.058583 0.429932 4.201594 -2.169284 -2.449735 14.394017 -1.891952 -4.844262 10.176922 -0.000006 -0.000001 -0.000001 -2.287568 -3.779240 9.326692 0.261439 -5.086660 22.706556 -0.653528 -1.122403 7.427748 -0.000000 -0.000001 -0.000006 -4.993818 -10.103634 6.581192 4.013092 -4.049898 29.072850 2.120851 -3.144517 11.408408 0.000001 -0.000001 -0.000005 -4.739692 -16.157029 19.400399 10.723874 -2.563314 30.549148 6.424575 -3.077795 11.005173 0.000002 -0.000001 -0.000001 -12.574015 0.638648 -13.244275 30.465010 -32.659967 2.004438 28.098823 2.134338 14.758738 -35.917916 -0.196618 0.044696 0.000000 -0.000000 -0.000000 -26.676543 -4.123723 -3.844157 27.603858 5.432583 -0.644846 32.389464 0.750712 -1.532549 -31.610406 1.713921 -0.937199 -0.000000 -0.000001 -0.000000 
